<svg width="24" height="24" viewBox="0 0 24 24" fill="none" xmlns="http://www.w3.org/2000/svg">
<path fill-rule="evenodd" clip-rule="evenodd" d="M12.8729 4.09202C12.2971 3.96933 11.7031 3.96933 11.1273 4.09202C10.5125 4.22303 9.91084 4.55657 8.33234 5.46675L8.16678 5.56222C6.69812 6.40906 6.1444 6.73951 5.73488 7.16964C5.24076 7.68863 4.87644 8.32596 4.67604 9.0267C4.50921 9.61007 4.50004 10.2749 4.50004 12C4.50004 13.7251 4.50921 14.3899 4.67604 14.9733C4.87644 15.674 5.24076 16.3114 5.73488 16.8304C6.1444 17.2605 6.69812 17.5909 8.16678 18.4378L8.33234 18.5333C9.91084 19.4434 10.5125 19.777 11.1273 19.908C11.7031 20.0307 12.2971 20.0307 12.8729 19.908C13.4877 19.777 14.0893 19.4434 15.6678 18.5332L15.8333 18.4378C17.302 17.5909 17.8557 17.2605 18.2652 16.8304C18.7594 16.3114 19.1237 15.674 19.3241 14.9733C19.4909 14.3899 19.5001 13.7251 19.5001 12C19.5001 10.2749 19.4909 9.61007 19.3241 9.0267C19.1237 8.32596 18.7594 7.68863 18.2652 7.16964C17.8557 6.73951 17.302 6.40906 15.8333 5.56222L15.6678 5.46675C14.0893 4.55657 13.4877 4.22303 12.8729 4.09202ZM10.7104 2.13594C11.561 1.95469 12.4391 1.95469 13.2897 2.13594C14.2521 2.34101 15.1413 2.85404 16.5165 3.64745C16.566 3.67599 16.6161 3.70489 16.6668 3.73415L16.8324 3.82961C16.8786 3.85629 16.9243 3.88262 16.9695 3.90862C18.2539 4.64891 19.0801 5.12508 19.7137 5.79055C20.433 6.546 20.9587 7.46865 21.247 8.47678C21.5006 9.3635 21.5004 10.3283 21.5001 11.8426C21.5001 11.8944 21.5001 11.9469 21.5001 12C21.5001 12.0531 21.5001 12.1056 21.5001 12.1574C21.5004 13.6717 21.5006 14.6365 21.247 15.5232C20.9587 16.5314 20.433 17.454 19.7137 18.2094C19.0801 18.8749 18.2539 19.3511 16.9695 20.0914C16.9243 20.1174 16.8786 20.1437 16.8324 20.1704L16.6668 20.2659C16.6161 20.2951 16.566 20.324 16.5165 20.3525C15.1413 21.146 14.2521 21.659 13.2897 21.8641C12.4391 22.0453 11.561 22.0453 10.7104 21.8641C9.74806 21.659 8.85882 21.146 7.48359 20.3525C7.43413 20.324 7.38404 20.2951 7.3333 20.2659L7.83282 19.3996L7.3333 20.2659L7.16774 20.1704C7.12147 20.1437 7.07577 20.1174 7.03065 20.0914C5.74618 19.3511 4.91997 18.8749 4.28639 18.2094C3.56715 17.454 3.04144 16.5314 2.75313 15.5232C2.49954 14.6365 2.49973 13.6717 2.50002 12.1574C2.50003 12.1056 2.50004 12.0531 2.50004 12C2.50004 11.9469 2.50003 11.8944 2.50002 11.8426C2.49973 10.3283 2.49954 9.3635 2.75313 8.47678C3.04144 7.46865 3.56714 6.546 4.28639 5.79055C4.91997 5.12508 5.74619 4.64891 7.03066 3.90863C7.07579 3.88262 7.12147 3.85629 7.16774 3.82961L7.3333 3.73415C7.38404 3.70489 7.43414 3.67599 7.4836 3.64745C8.85882 2.85404 9.74806 2.34101 10.7104 2.13594ZM8.34379 12C8.34379 9.96741 9.95753 8.2771 12.0001 8.2771C14.0426 8.2771 15.6563 9.96741 15.6563 12C15.6563 14.0326 14.0426 15.7229 12.0001 15.7229C9.95753 15.7229 8.34379 14.0326 8.34379 12ZM12.0001 10.2771C11.1086 10.2771 10.3438 11.025 10.3438 12C10.3438 12.975 11.1086 13.7229 12.0001 13.7229C12.8916 13.7229 13.6563 12.975 13.6563 12C13.6563 11.025 12.8916 10.2771 12.0001 10.2771Z" fill="#091B3D"/>
</svg>
